<?xml version="1.0" encoding="UTF-8" standalone="no"?>
<svg xmlns="http://www.w3.org/2000/svg" viewBox="0 0 200 60" width="200" height="60">
  <path fill="#F44336" d="M100.5,14.1c-10.9,0-19.8,8.8-19.8,19.8c0,10.9,8.8,19.8,19.8,19.8c10.9,0,19.8-8.8,19.8-19.8 C120.3,23,111.4,14.1,100.5,14.1z M100.5,43.7c-5.4,0-9.8-4.4-9.8-9.8c0-5.4,4.4-9.8,9.8-9.8c5.4,0,9.8,4.4,9.8,9.8 C110.3,39.3,105.9,43.7,100.5,43.7z"/>
  <path fill="#333333" d="M26.1,40.7V19.3h7.7v21.4c0,6.7,4.2,10.6,10.1,10.6c5.9,0,10.1-3.9,10.1-10.6V19.3h7.7v21.4 c0,10.8-6.3,17.9-17.8,17.9S26.1,51.5,26.1,40.7z"/>
  <path fill="#333333" d="M137.4,19.3h7.8l12.9,19.2V19.3h7.7v37.1h-7.7l-12.9-19.2v19.2h-7.7V19.3z"/>
</svg> 