<?xml version="1.0" encoding="UTF-8" standalone="no"?>
<svg xmlns="http://www.w3.org/2000/svg" viewBox="0 0 200 60" width="200" height="60">
  <path d="M21.06 14.96h7.92v30.88h-7.92V33.02h-8.4v12.82H4.74V14.96h7.92v11.28h8.4V14.96zm19.44 0h7.92v30.88H40.5V14.96zm29.46 31.36c-9.25 0-15.84-7.08-15.84-16.08 0-9 6.6-16.08 15.84-16.08 9.25 0 15.84 7.08 15.84 16.08 0 9-6.6 16.08-15.84 16.08zm0-7.2c5.04 0 7.8-3.72 7.8-8.88 0-5.16-2.76-8.88-7.8-8.88-5.04 0-7.8 3.72-7.8 8.88 0 5.16 2.76 8.88 7.8 8.88zm33.84-24.16H113v30.88h-7.92V33.5l-10.32 12.34h-1.92L82.44 33.5v12.34h-7.92V14.96h9.18l10.56 13.2 10.56-13.2zm23.46 24.16c-9.72 0-16.44-6.12-16.44-15.6s6.72-15.6 16.44-15.6c6.36 0 10.8 2.64 13.68 6.84l-6.24 4.56c-1.32-2.16-4.2-3.6-7.44-3.6-4.92 0-8.28 3.36-8.28 7.8s3.36 7.8 8.28 7.8c3.24 0 6.12-1.44 7.44-3.6l6.24 4.56c-2.88 4.2-7.32 6.84-13.68 6.84zm30.5-24.16h7.92v30.88h-7.92V33.02h-8.4v12.82h-7.92V14.96h7.92v11.28h8.4V14.96z" fill="#4354f4"/>
</svg> 