<svg xmlns="http://www.w3.org/2000/svg" xmlns:xlink="http://www.w3.org/1999/xlink" viewBox="0 0 1214.54 867.68"><defs><style>.cls-1{fill:url(#linear-gradient);}.cls-2{fill:url(#linear-gradient-2);}</style><linearGradient id="linear-gradient" x1="568.08" y1="893.13" x2="1421.38" y2="-217.04" gradientUnits="userSpaceOnUse"><stop offset="0" stop-color="#00ffb0"/><stop offset="0.31" stop-color="#48d0ff"/><stop offset="0.63" stop-color="#5f5fc9"/><stop offset="1" stop-color="#272782"/></linearGradient><linearGradient id="linear-gradient-2" x1="66.87" y1="129.11" x2="1005.07" y2="641.27" gradientUnits="userSpaceOnUse"><stop offset="0" stop-color="#4225a3"/><stop offset="1" stop-color="#c696d2"/></linearGradient></defs><g id="Layer_2" data-name="Layer 2"><g id="Layer_1-2" data-name="Layer 1"><path class="cls-1" d="M1214.54,433.83c0,26.92-2.07,52.81-7.24,77.66-8.28,55.92-28,105.61-56.94,151.17-41.43,66.28-101.47,116-178.1,151.17Q907.39,844,832,856.93c-57.59,9.91-110.31-36.31-110.31-94.74V750.58c0-44.38,31.42-80.05,73.93-92.78,34.09-10.21,63.79-26.61,88.64-49,47.62-42.45,70.4-100.44,70.4-175a331.71,331.71,0,0,0-3.1-46.59c-8.28-52.8-30-95.25-67.3-128.39-46.59-41.42-109.76-63.16-187.42-63.16C696.83,195.69,1111,161.53,1214.54,433.83Z"/><path class="cls-2" d="M1214.54,433.83C1111,161.53,696.83,195.69,696.83,195.69H535.31v543.6A128.39,128.39,0,0,1,406.92,867.68h0A128.39,128.39,0,0,1,278.53,739.29V194.66H97.33A97.33,97.33,0,0,1,0,97.33H0A97.33,97.33,0,0,1,97.33,0H707.2c37.27,0,72.47,2.07,105.61,8.28,58,7.24,110.78,22.79,159.45,45.56,76.63,35.2,136.67,85.94,178.1,151.17C1192.8,270.24,1214.54,346.86,1214.54,433.83Z"/></g></g></svg>