<svg xmlns="http://www.w3.org/2000/svg" xmlns:xlink="http://www.w3.org/1999/xlink" viewBox="0 0 5800.27 867.68"><defs><style>.cls-1{fill:url(#linear-gradient);}.cls-2{fill:#02022b;}.cls-3{fill:url(#linear-gradient-2);}.cls-4{fill:url(#linear-gradient-3);}</style><linearGradient id="linear-gradient" x1="5394.09" y1="1031.48" x2="6067.83" y2="70.41" gradientUnits="userSpaceOnUse"><stop offset="0" stop-color="#00ffb0"/><stop offset="0.31" stop-color="#48d0ff"/><stop offset="0.63" stop-color="#5f5fc9"/><stop offset="1" stop-color="#272782"/></linearGradient><linearGradient id="linear-gradient-2" x1="568.08" y1="893.13" x2="1421.38" y2="-217.04" xlink:href="#linear-gradient"/><linearGradient id="linear-gradient-3" x1="66.87" y1="129.11" x2="1005.07" y2="641.27" gradientUnits="userSpaceOnUse"><stop offset="0" stop-color="#4225a3"/><stop offset="1" stop-color="#c696d2"/></linearGradient></defs><g id="Layer_2" data-name="Layer 2"><g id="Layer_1-2" data-name="Layer 1"><circle class="cls-1" cx="5665.36" cy="644.52" r="134.91"/><path class="cls-2" d="M1932.45,190.57H1768.88V704.3q0,44.38-20.7,65.84t-53.51,21.47q-33.32,0-54.27-21.71t-21-65.6V190.57H1455.88q-38.37,0-57.05-16.16t-18.67-42.68q0-27.51,19.43-43.42t56.29-15.92h476.57q38.88,0,57.81,16.4t18.93,42.94q0,26.52-19.19,42.68T1932.45,190.57Z"/><path class="cls-2" d="M2160,601.56v110q0,40.05-19.69,60.06t-50,20q-29.79,0-49-20.25t-19.18-59.83V344.93q0-88.74,67.15-88.76,34.32,0,49.47,20.74t16.65,61.26q24.75-40.51,50.75-61.26t69.41-20.74q43.41,0,84.31,20.74t40.89,55q0,24.14-17.42,39.8t-37.61,15.68q-7.58,0-36.59-8.92T2258,369.53q-30.3,0-49.47,15.2t-29.79,45.09q-10.59,29.93-14.64,71.16T2160,601.56Z"/><path class="cls-2" d="M2772.82,717.32q-50,37.17-96.68,55.72t-104.75,18.57q-53,0-93.15-20t-61.84-54.27A136,136,0,0,1,2394.69,643q0-54,35.84-92.13T2529,499.78q13.13-2.91,65.12-13t89.11-18.58q37.1-8.42,80.52-20.49-2.54-52.1-22-76.46t-80.52-24.35q-52.52,0-79,14t-45.44,42q-18.93,28-26.76,36.9t-33.57,8.93q-23.22,0-40.13-14.24T2419.43,398q0-34.74,25.75-67.54t80.26-54Q2580,255.2,2661.25,255.2q90.87,0,142.87,20.51t73.45,64.88Q2899,385,2899,458.29q0,46.31-.25,78.62t-.76,71.87q0,37.17,12.88,77.43t12.87,51.85q0,20.27-19.95,36.9t-45.18,16.65q-21.21,0-41.9-19.05T2772.82,717.32Zm-9.09-190.54q-30.29,10.62-88.09,22.43t-80,17.37q-22.23,5.56-42.41,21.71T2533,633.4q0,29.9,23.73,50.88t62.1,21q40.89,0,75.47-17.14T2745.05,644q18.67-29.89,18.68-98.4Z"/><path class="cls-2" d="M3138.22,329v15.92q36.36-45.82,79.52-67.29t99.2-21.47q54.53,0,97.44,22.68T3478.49,343a148,148,0,0,1,17.67,52.1q4,28,4,71.39v245q0,39.56-18.93,59.83t-49.22,20.25q-30.81,0-50-20.74t-19.19-59.34V492.05q0-65.1-18.93-99.61T3268.47,358a115.22,115.22,0,0,0-67.14,21q-30.28,21-44.42,57.64-10.11,29.43-10.1,110v165q0,40.05-19.44,60.06t-50.23,20q-29.79,0-49-20.74T3009,711.53V331q0-37.63,17.16-56.21t46.95-18.57a66,66,0,0,1,32.82,8.21q14.63,8.21,23.47,24.6T3138.22,329Z"/><path class="cls-2" d="M3714.16,72.39h195.37q76.23,0,130.75,13.5t98.95,50.66Q4254.85,231.08,4254.85,424q0,63.69-11.61,116.27t-35.85,94.78a296.49,296.49,0,0,1-62.09,75.48,258.22,258.22,0,0,1-65.13,41,304.87,304.87,0,0,1-76,21.71q-40.64,6.29-91.63,6.27H3717.19q-40.89,0-61.59-11.82t-27-33.29q-6.33-21.45-6.32-55.7V160.18q0-46.31,21.71-67.05T3714.16,72.39Zm58.06,113.36v480H3885.8q37.35,0,58.57-1.92a189.82,189.82,0,0,0,43.92-9.66,121,121,0,0,0,39.37-21.7q75.23-60.78,75.23-209.35,0-104.67-33.07-156.78T3988.29,200q-48.47-14.22-117.13-14.23Z"/><path class="cls-2" d="M4735.86,556.22H4466.28q.49,44.85,18.93,79.1t49,51.61q30.52,17.37,67.39,17.37a171.78,171.78,0,0,0,45.18-5.55,150.92,150.92,0,0,0,39.64-17.36,300.94,300.94,0,0,0,35.33-25.33q16.15-13.5,41.91-36.66,10.6-8.68,30.29-8.68,21.19,0,34.32,11.1t13.13,31.35q0,17.87-14.64,41.72t-44.17,45.83q-29.54,22-74.21,36.41t-102.74,14.48q-132.78,0-206.48-72.35t-73.71-196.34q0-58.35,18.18-108.28t53-85.63q34.83-35.68,85.82-54.75t113.08-19.06q80.77,0,138.58,32.57T4820.67,372q28.78,51.6,28.78,105.15,0,49.7-29.78,64.4T4735.86,556.22Zm-269.58-74.78h249.89q-5.06-67.53-38.11-101.06T4591,346.87q-51.49,0-84.56,34T4466.28,481.44Z"/><path class="cls-2" d="M5011.4,338.17,5123,637.25l120.15-312.09q14.13-37.64,27.77-53.31t41.39-15.68q26.25,0,44.68,16.89t18.43,39.06a75.94,75.94,0,0,1-3.28,20.26,186.37,186.37,0,0,1-7.58,21.71q-4.29,10.14-9.84,23.16L5222.43,690.79q-5.57,13.51-14.39,34.26a175.5,175.5,0,0,1-19.69,35.44,76.38,76.38,0,0,1-26.75,22.92q-15.92,8.19-38.62,8.2-29.3,0-46.7-12.78t-25.75-28q-8.34-15.2-28-60.06L4891.25,380.63q-4.55-11.6-9.34-23.17a195.27,195.27,0,0,1-8.08-23.63,80.73,80.73,0,0,1-3.28-20.74q0-13.5,8.58-26.77a65.8,65.8,0,0,1,23.73-21.71,66.5,66.5,0,0,1,32.81-8.44q34.34,0,47.21,18.82T5011.4,338.17Z"/><path class="cls-3" d="M1214.54,433.83c0,26.92-2.07,52.81-7.24,77.66-8.28,55.92-28,105.61-56.94,151.17-41.43,66.28-101.47,116-178.1,151.17Q907.39,844,832,856.93c-57.59,9.91-110.31-36.31-110.31-94.74V750.58c0-44.38,31.42-80.05,73.93-92.78,34.09-10.21,63.79-26.61,88.64-49,47.62-42.45,70.4-100.44,70.4-175a331.71,331.71,0,0,0-3.1-46.59c-8.28-52.8-30-95.25-67.3-128.39-46.59-41.42-109.76-63.16-187.42-63.16C696.83,195.69,1111,161.53,1214.54,433.83Z"/><path class="cls-4" d="M1214.54,433.83C1111,161.53,696.83,195.69,696.83,195.69H535.31v543.6A128.39,128.39,0,0,1,406.92,867.68h0A128.39,128.39,0,0,1,278.53,739.29V194.66H97.33A97.33,97.33,0,0,1,0,97.33H0A97.33,97.33,0,0,1,97.33,0H707.2c37.27,0,72.47,2.07,105.61,8.28,58,7.24,110.78,22.79,159.45,45.56,76.63,35.2,136.67,85.94,178.1,151.17C1192.8,270.24,1214.54,346.86,1214.54,433.83Z"/></g></g></svg>