<svg xmlns="http://www.w3.org/2000/svg" xmlns:xlink="http://www.w3.org/1999/xlink" viewBox="0 0 3658.69 3658.69"><defs><style>.cls-1{fill:#02022b;}.cls-2{fill:url(#linear-gradient);}.cls-3{fill:#fff;}.cls-4{fill:url(#linear-gradient-2);}.cls-5{fill:url(#linear-gradient-3);}</style><linearGradient id="linear-gradient" x1="3108.94" y1="2135.98" x2="3454.62" y2="1642.88" gradientUnits="userSpaceOnUse"><stop offset="0" stop-color="#00ffb0"/><stop offset="0.31" stop-color="#48d0ff"/><stop offset="0.63" stop-color="#5f5fc9"/><stop offset="1" stop-color="#272782"/></linearGradient><linearGradient id="linear-gradient-2" x1="632.82" y1="2065" x2="1070.63" y2="1495.39" xlink:href="#linear-gradient"/><linearGradient id="linear-gradient-3" x1="375.66" y1="1672.99" x2="857.03" y2="1935.77" gradientUnits="userSpaceOnUse"><stop offset="0" stop-color="#4225a3"/><stop offset="1" stop-color="#c696d2"/></linearGradient></defs><g id="Layer_2" data-name="Layer 2"><g id="Layer_1-2" data-name="Layer 1"><rect class="cls-1" width="3658.69" height="3658.69"/><circle class="cls-2" cx="3248.12" cy="1937.44" r="69.22"/><path class="cls-3" d="M1332.85,1704.53h-83.93v263.59q0,22.76-10.62,33.77t-27.45,11q-17.08,0-27.84-11.14t-10.75-33.65V1704.53h-83.93q-19.68,0-29.27-8.29t-9.58-21.9q0-14.11,10-22.28t28.88-8.17h244.52q19.94,0,29.66,8.42t9.72,22q0,13.61-9.85,21.9T1332.85,1704.53Z"/><path class="cls-3" d="M1449.62,1915.4v56.42q0,20.55-10.11,30.82t-25.64,10.27q-15.28,0-25.12-10.39t-9.84-30.7V1783.73q0-45.54,34.44-45.54,17.63,0,25.4,10.64t8.54,31.43q12.69-20.79,26-31.43t35.62-10.64a94.65,94.65,0,0,1,43.26,10.64q21,10.65,21,28.21a26.21,26.21,0,0,1-9,20.42q-8.93,8.05-19.29,8-3.89,0-18.78-4.58t-26.29-4.58q-15.54,0-25.38,7.8t-15.28,23.14q-5.45,15.35-7.52,36.5T1449.62,1915.4Z"/><path class="cls-3" d="M1764,1974.79q-25.63,19.08-49.6,28.59t-53.75,9.53q-27.18,0-47.79-10.27t-31.72-27.85a69.79,69.79,0,0,1-11.15-38.11q0-27.72,18.4-47.27t50.5-26.23q6.73-1.5,33.42-6.69t45.72-9.53q19-4.32,41.31-10.51-1.3-26.73-11.27-39.23t-41.31-12.5q-26.94,0-40.54,7.18t-23.31,21.53q-9.72,14.35-13.73,18.93t-17.22,4.58a30.9,30.9,0,0,1-20.59-7.3,23.28,23.28,0,0,1-8.68-18.68q0-17.84,13.2-34.65t41.19-27.73q28-10.89,69.68-10.89,46.62,0,73.3,10.52t37.69,33.29q11,22.77,11,60.39,0,23.76-.12,40.34t-.39,36.88a130.11,130.11,0,0,0,6.61,39.72q6.6,20.67,6.6,26.61,0,10.38-10.23,18.93a35.24,35.24,0,0,1-23.18,8.54q-10.89,0-21.5-9.78T1764,1974.79Zm-4.66-97.76q-15.54,5.45-45.2,11.51t-41.06,8.91a56.82,56.82,0,0,0-21.75,11.14q-10.36,8.29-10.37,23.14,0,15.35,12.18,26.11t31.86,10.77a86,86,0,0,0,38.73-8.79q17.73-8.77,26-22.65,9.57-15.33,9.58-50.48Z"/><path class="cls-3" d="M1951.51,1775.56v8.17q18.63-23.52,40.79-34.52t50.9-11q28,0,50,11.63t32.89,32.92a75.88,75.88,0,0,1,9.06,26.73q2.07,14.35,2.08,36.63v125.72q0,20.29-9.72,30.7t-25.25,10.39q-15.81,0-25.64-10.64t-9.85-30.45V1859.21q0-33.4-9.71-51.1t-38.73-17.7a59.13,59.13,0,0,0-34.45,10.77q-15.54,10.75-22.79,29.57-5.19,15.11-5.18,56.44v84.63q0,20.55-10,30.82t-25.77,10.27q-15.29,0-25.12-10.64t-9.84-30.45V1776.55q0-19.3,8.8-28.83t24.09-9.53a33.81,33.81,0,0,1,16.84,4.21,30.68,30.68,0,0,1,12,12.62Q1951.5,1763.44,1951.51,1775.56Z"/><path class="cls-3" d="M2247,1643.89h100.23q39.12,0,67.09,6.93a125.48,125.48,0,0,1,50.77,26q59.31,48.51,59.32,147.5,0,32.68-6,59.66a171.41,171.41,0,0,1-18.39,48.63,152.28,152.28,0,0,1-31.86,38.73,132.47,132.47,0,0,1-33.41,21,156.07,156.07,0,0,1-39,11.14,309.62,309.62,0,0,1-47,3.22H2248.56q-21,0-31.61-6.06a28.39,28.39,0,0,1-13.85-17.08q-3.26-11-3.24-28.58V1688.94q0-23.76,11.13-34.4T2247,1643.89Zm29.78,58.16v246.26h58.28q19.17,0,30-1a97.81,97.81,0,0,0,22.54-5,62.13,62.13,0,0,0,20.2-11.13q38.58-31.18,38.59-107.41,0-53.71-17-80.45t-41.83-34q-24.87-7.3-60.1-7.31Z"/><path class="cls-3" d="M2771.22,1892.13H2632.9q.24,23,9.72,40.59t25.12,26.48a68.71,68.71,0,0,0,34.58,8.92,87.91,87.91,0,0,0,23.18-2.86,77,77,0,0,0,20.33-8.9,154.14,154.14,0,0,0,18.13-13q8.29-6.93,21.5-18.81,5.45-4.46,15.54-4.45,10.88,0,17.61,5.69t6.74,16.09q0,9.16-7.51,21.41t-22.66,23.51q-15.16,11.27-38.08,18.68t-52.71,7.43q-68.13,0-105.94-37.12t-37.82-100.74q0-29.94,9.33-55.56a121.27,121.27,0,0,1,27.2-43.93q17.87-18.32,44-28.09t58-9.78q41.43,0,71.1,16.71t44.42,43.19q14.76,26.48,14.76,54,0,25.5-15.28,33T2771.22,1892.13Zm-138.32-38.36h128.21q-2.59-34.65-19.55-51.85t-44.69-17.2q-26.41,0-43.38,17.44T2632.9,1853.77Z"/><path class="cls-3" d="M2912.59,1780.26l57.25,153.45,61.64-160.13q7.24-19.3,14.25-27.34t21.24-8a32.76,32.76,0,0,1,22.93,8.66q9.45,8.67,9.44,20.05a38.48,38.48,0,0,1-1.68,10.39,96.23,96.23,0,0,1-3.88,11.14c-1.47,3.47-3.16,7.42-5.06,11.88l-67.86,160.87q-2.85,6.94-7.38,17.58a90.45,90.45,0,0,1-10.1,18.18,39.16,39.16,0,0,1-13.73,11.76q-8.16,4.21-19.81,4.21-15,0-24-6.56T2932.67,1992q-4.29-7.8-14.38-30.82L2850.94,1802q-2.33-5.94-4.79-11.88A98.93,98.93,0,0,1,2842,1778a41.31,41.31,0,0,1-1.69-10.65,25,25,0,0,1,4.41-13.73,33.65,33.65,0,0,1,12.17-11.14,34.08,34.08,0,0,1,16.83-4.33q17.63,0,24.22,9.65T2912.59,1780.26Z"/><path class="cls-4" d="M964.51,1829.34a230.91,230.91,0,0,1-32.94,117.41c-21.25,34-52.06,59.5-91.37,77.56a284.63,284.63,0,0,1-72,22.12c-29.55,5.08-56.6-18.63-56.6-48.61v-6c0-22.77,16.12-41.07,37.93-47.6A117.62,117.62,0,0,0,795,1919.13c24.44-21.79,36.12-51.54,36.12-89.79a169.69,169.69,0,0,0-1.59-23.9c-4.24-27.09-15.41-48.87-34.53-65.87-23.9-21.26-56.31-32.41-96.16-32.41C698.88,1707.16,911.38,1689.63,964.51,1829.34Z"/><path class="cls-5" d="M964.51,1829.34c-53.13-139.71-265.63-122.18-265.63-122.18H616v278.9a65.87,65.87,0,0,1-65.87,65.88h0a65.87,65.87,0,0,1-65.88-65.88V1706.63h-93a49.94,49.94,0,0,1-49.94-49.94h0a49.94,49.94,0,0,1,49.94-49.94H704.2c19.12,0,37.18,1.07,54.19,4.25a270.47,270.47,0,0,1,81.81,23.38c39.31,18.06,70.12,44.09,91.37,77.56C953.35,1745.41,964.51,1784.72,964.51,1829.34Z"/></g></g></svg>